<mxfile host="Electron" modified="2025-01-10T23:24:48.719Z" agent="Mozilla/5.0 (Windows NT 10.0; Win64; x64) AppleWebKit/537.36 (KHTML, like Gecko) draw.io/24.5.3 Chrome/124.0.6367.207 Electron/30.0.6 Safari/537.36" etag="ONMdmeNomipLDBYG6nPE" version="24.5.3" type="device">
  <diagram name="Seite-1" id="nlIHw9ZrIIH4S0aWYMoA">
    <mxGraphModel dx="4123" dy="1196" grid="1" gridSize="10" guides="1" tooltips="1" connect="1" arrows="1" fold="1" page="1" pageScale="1" pageWidth="1169" pageHeight="827" math="0" shadow="0">
      <root>
        <mxCell id="0" />
        <mxCell id="1" parent="0" />
        <mxCell id="xwFTqMN2i0QqSYNdKOKp-33" value="" style="rounded=1;whiteSpace=wrap;html=1;strokeColor=#E07A5F;fontColor=#393C56;fillColor=#F2CC8F;arcSize=5;" parent="1" vertex="1">
          <mxGeometry x="8" y="287" width="1150" height="533" as="geometry" />
        </mxCell>
        <mxCell id="xwFTqMN2i0QqSYNdKOKp-36" value="&lt;span style=&quot;white-space: pre; font-size: 12px;&quot;&gt;&#x9;&lt;/span&gt;One of:&lt;div style=&quot;font-size: 12px;&quot;&gt;&lt;ul style=&quot;font-size: 12px;&quot;&gt;&lt;li style=&quot;font-size: 12px;&quot;&gt;&lt;b style=&quot;font-size: 12px;&quot;&gt;&lt;font color=&quot;#cc1366&quot; style=&quot;font-size: 12px;&quot;&gt;MIMICPP_SCOPED_EXPECTATION&lt;/font&gt;&lt;/b&gt;&lt;/li&gt;&lt;li style=&quot;font-size: 12px;&quot;&gt;&lt;b style=&quot;font-size: 12px;&quot;&gt;&lt;font color=&quot;#cc1366&quot; style=&quot;font-size: 12px;&quot;&gt;SCOPED_EXP&lt;/font&gt;&lt;/b&gt;&lt;/li&gt;&lt;li style=&quot;font-size: 12px;&quot;&gt;&lt;font color=&quot;#cc1366&quot; style=&quot;font-size: 12px;&quot;&gt;&lt;b style=&quot;font-size: 12px;&quot;&gt;ScopedExpectation&lt;/b&gt;&lt;/font&gt; name &lt;font style=&quot;font-size: 12px;&quot; color=&quot;#0000cc&quot;&gt;&lt;b style=&quot;font-size: 12px;&quot;&gt;=&lt;/b&gt;&lt;/font&gt;&lt;/li&gt;&lt;/ul&gt;&lt;/div&gt;" style="text;html=1;align=left;verticalAlign=top;resizable=0;points=[];autosize=1;strokeColor=#cc1366;fillColor=#fad9d5;shadow=1;glass=0;rounded=1;sketch=1;curveFitting=1;jiggle=2;fontColor=#393C56;arcSize=31;fontSize=12;" parent="1" vertex="1">
          <mxGeometry x="18" y="330" width="260" height="100" as="geometry" />
        </mxCell>
        <mxCell id="xwFTqMN2i0QqSYNdKOKp-37" value="" style="group" parent="1" vertex="1" connectable="0">
          <mxGeometry x="308" y="400" width="310" height="100" as="geometry" />
        </mxCell>
        <mxCell id="xwFTqMN2i0QqSYNdKOKp-34" value="&lt;i&gt;&lt;font color=&quot;#cc0066&quot;&gt;expectation-closure&lt;/font&gt;&lt;/i&gt; &lt;i&gt;name&lt;/i&gt;&lt;b&gt;&lt;font color=&quot;#0000cc&quot;&gt;.expect_call(&lt;/font&gt;&lt;/b&gt; &lt;i style=&quot;&quot;&gt;&lt;font color=&quot;#ff66ff&quot;&gt;matchers&lt;/font&gt;&lt;/i&gt; &lt;b&gt;&lt;font color=&quot;#0000cc&quot;&gt;)&lt;/font&gt;&lt;/b&gt;&lt;blockquote style=&quot;margin: 0 0 0 40px; border: none; padding: 0px;&quot;&gt;&lt;blockquote style=&quot;margin: 0 0 0 40px; border: none; padding: 0px;&quot;&gt;&lt;blockquote style=&quot;margin: 0 0 0 40px; border: none; padding: 0px;&quot;&gt;&lt;span style=&quot;white-space: pre;&quot;&gt;&#x9;&lt;/span&gt;&lt;span style=&quot;background-color: initial;&quot;&gt;[&lt;/span&gt;&lt;b style=&quot;background-color: initial;&quot;&gt;&lt;font color=&quot;#0000cc&quot;&gt;and&lt;/font&gt;&lt;/b&gt;&lt;span style=&quot;background-color: initial;&quot;&gt;&amp;nbsp;&lt;/span&gt;&lt;font style=&quot;background-color: initial;&quot; color=&quot;#990099&quot;&gt;&lt;i&gt;arg-requirements&lt;/i&gt;&lt;/font&gt;&lt;span style=&quot;background-color: initial;&quot;&gt;&amp;nbsp;...]&lt;/span&gt;&lt;/blockquote&gt;&lt;blockquote style=&quot;margin: 0 0 0 40px; border: none; padding: 0px;&quot;&gt;&lt;span style=&quot;white-space: pre;&quot;&gt;&#x9;&lt;/span&gt;[&lt;b&gt;&lt;font color=&quot;#0000cc&quot;&gt;and&lt;/font&gt;&lt;/b&gt;&amp;nbsp;&lt;i&gt;in-&lt;font color=&quot;#006600&quot;&gt;sequence&lt;/font&gt;&lt;/i&gt;&amp;nbsp;...]&lt;br&gt;&lt;div&gt;&lt;span style=&quot;white-space: pre;&quot;&gt;&#x9;&lt;/span&gt;[&lt;b&gt;&lt;font color=&quot;#0000cc&quot;&gt;and&lt;/font&gt;&lt;/b&gt; &lt;i style=&quot;&quot;&gt;&lt;font color=&quot;#00cc00&quot;&gt;how-often&lt;/font&gt;&lt;/i&gt;]&lt;/div&gt;&lt;/blockquote&gt;&lt;/blockquote&gt;&lt;blockquote style=&quot;margin: 0 0 0 40px; border: none; padding: 0px;&quot;&gt;&lt;blockquote style=&quot;margin: 0 0 0 40px; border: none; padding: 0px;&quot;&gt;&lt;div&gt;&lt;span style=&quot;white-space: pre;&quot;&gt;&#x9;&lt;/span&gt;[&lt;b&gt;&lt;font color=&quot;#0000cc&quot;&gt;and&lt;/font&gt;&lt;/b&gt;&amp;nbsp;&lt;i style=&quot;&quot;&gt;&lt;font color=&quot;#66b2ff&quot;&gt;side-effects&lt;/font&gt;&lt;/i&gt; ...]&lt;/div&gt;&lt;/blockquote&gt;&lt;/blockquote&gt;&lt;blockquote style=&quot;margin: 0 0 0 40px; border: none; padding: 0px;&quot;&gt;&lt;blockquote style=&quot;margin: 0 0 0 40px; border: none; padding: 0px;&quot;&gt;&lt;div&gt;&lt;span style=&quot;white-space: pre;&quot;&gt;&#x9;&lt;/span&gt;&lt;b&gt;&lt;font color=&quot;#0000cc&quot;&gt;and&lt;/font&gt;&lt;/b&gt;&amp;nbsp;&lt;font color=&quot;#009999&quot;&gt;&lt;i&gt;finalize-statement&lt;/i&gt;&lt;/font&gt;&lt;b&gt;&lt;font color=&quot;#0000cc&quot;&gt;;&lt;/font&gt;&lt;/b&gt;&lt;/div&gt;&lt;/blockquote&gt;&lt;/blockquote&gt;&lt;/blockquote&gt;" style="text;html=1;align=left;verticalAlign=top;resizable=0;points=[];autosize=1;strokeColor=none;fillColor=none;fontColor=#393C56;" parent="xwFTqMN2i0QqSYNdKOKp-37" vertex="1">
          <mxGeometry width="310" height="100" as="geometry" />
        </mxCell>
        <mxCell id="xwFTqMN2i0QqSYNdKOKp-35" value="any order" style="labelPosition=left;align=right;strokeWidth=1;shape=mxgraph.mockup.markup.curlyBrace;html=1;shadow=0;dashed=0;strokeColor=#999999;direction=north;fontColor=#393C56;fillColor=#F2CC8F;verticalLabelPosition=middle;verticalAlign=middle;horizontal=1;fontSize=9;" parent="xwFTqMN2i0QqSYNdKOKp-37" vertex="1">
          <mxGeometry x="129" y="21" width="20" height="75" as="geometry" />
        </mxCell>
        <mxCell id="xwFTqMN2i0QqSYNdKOKp-38" value="&lt;ul&gt;&lt;li&gt;&lt;b style=&quot;&quot;&gt;&lt;font color=&quot;#009999&quot;&gt;finally::throws&lt;/font&gt;&lt;/b&gt;&lt;b style=&quot;color: rgb(0, 0, 204);&quot;&gt;(&lt;/b&gt; &lt;i&gt;exception &lt;/i&gt;&lt;b style=&quot;color: rgb(0, 0, 204);&quot;&gt;)&lt;/b&gt;&lt;/li&gt;&lt;li&gt;&lt;font color=&quot;#009999&quot; style=&quot;font-weight: bold;&quot;&gt;finally::returns&lt;/font&gt;&lt;font style=&quot;font-weight: bold;&quot; color=&quot;#0000cc&quot;&gt;(&lt;/font&gt;&lt;i style=&quot;&quot;&gt; value &lt;/i&gt;&lt;font style=&quot;font-weight: bold;&quot; color=&quot;#0000cc&quot;&gt;)&lt;/font&gt;&lt;/li&gt;&lt;li&gt;&lt;b style=&quot;&quot;&gt;&lt;font color=&quot;#009999&quot;&gt;finally::returns_arg&lt;/font&gt;&lt;/b&gt;&lt;b style=&quot;color: rgb(0, 0, 204);&quot;&gt;&amp;lt;&lt;/b&gt;&lt;i style=&quot;&quot;&gt; i &lt;/i&gt;&lt;b style=&quot;color: rgb(0, 0, 204);&quot;&gt;&amp;gt;()&lt;/b&gt;&lt;/li&gt;&lt;li&gt;&lt;b style=&quot;&quot;&gt;&lt;font color=&quot;#009999&quot;&gt;finally::returns_result_of&lt;/font&gt;&lt;/b&gt;&lt;b style=&quot;color: rgb(0, 0, 204);&quot;&gt;(&lt;/b&gt;&lt;i&gt; func &lt;/i&gt;&lt;b style=&quot;color: rgb(0, 0, 204);&quot;&gt;)&lt;/b&gt;&lt;/li&gt;&lt;li&gt;&lt;b style=&quot;&quot;&gt;&lt;font color=&quot;#009999&quot;&gt;finally::returns_apply_result_of&lt;/font&gt;&lt;/b&gt;&lt;b style=&quot;color: rgb(0, 0, 204);&quot;&gt;&amp;lt;&lt;/b&gt;&lt;i style=&quot;&quot;&gt; i &lt;/i&gt;[&lt;font style=&quot;&quot; color=&quot;#0000cc&quot;&gt;&lt;b style=&quot;&quot;&gt;,&lt;/b&gt;&lt;/font&gt;&lt;i&gt; is &lt;/i&gt;...]&lt;i&gt; &lt;/i&gt;&lt;b style=&quot;color: rgb(0, 0, 204);&quot;&gt;&amp;gt;(&lt;/b&gt;&lt;i&gt; func &lt;/i&gt;&lt;b style=&quot;color: rgb(0, 0, 204);&quot;&gt;)&lt;/b&gt;&amp;nbsp;&lt;/li&gt;&lt;li&gt;&lt;b style=&quot;&quot;&gt;&lt;font color=&quot;#009999&quot;&gt;finally::returns_apply_all_result_of&lt;/font&gt;&lt;/b&gt;&lt;b style=&quot;color: rgb(0, 0, 204);&quot;&gt;(&lt;/b&gt;&lt;i&gt; func &lt;/i&gt;&lt;b style=&quot;color: rgb(0, 0, 204);&quot;&gt;)&lt;/b&gt;&lt;br&gt;&lt;/li&gt;&lt;/ul&gt;" style="text;html=1;align=left;verticalAlign=top;resizable=0;points=[];autosize=1;strokeColor=#009999;fillColor=#fad9d5;shadow=1;glass=0;rounded=1;sketch=1;curveFitting=1;jiggle=2;fontColor=#393C56;arcSize=26;fontSize=12;" parent="1" vertex="1">
          <mxGeometry x="288" y="660" width="350" height="120" as="geometry" />
        </mxCell>
        <mxCell id="xwFTqMN2i0QqSYNdKOKp-39" value="&lt;ul&gt;&lt;li&gt;&lt;b style=&quot;&quot;&gt;&lt;font color=&quot;#00cc00&quot;&gt;expect::times&lt;/font&gt;&lt;/b&gt;&lt;b style=&quot;color: rgb(0, 0, 204);&quot;&gt;(&lt;/b&gt; &lt;i&gt;exactly&amp;nbsp;&lt;/i&gt;&lt;b style=&quot;color: rgb(0, 0, 204);&quot;&gt;)&lt;/b&gt;&lt;/li&gt;&lt;li&gt;&lt;font color=&quot;#00cc00&quot; style=&quot;font-weight: bold;&quot;&gt;expect::times&lt;/font&gt;&lt;font style=&quot;font-weight: bold;&quot; color=&quot;#0000cc&quot;&gt;(&lt;/font&gt;&lt;i&gt;&amp;nbsp;min&lt;/i&gt;&lt;b style=&quot;&quot;&gt;&lt;font color=&quot;#0000cc&quot;&gt;,&lt;/font&gt;&lt;/b&gt;&lt;i&gt; max&amp;nbsp;&lt;/i&gt;&lt;font style=&quot;font-weight: bold;&quot; color=&quot;#0000cc&quot;&gt;)&lt;/font&gt;&lt;/li&gt;&lt;li&gt;&lt;b style=&quot;&quot;&gt;&lt;font color=&quot;#00cc00&quot;&gt;expect::at_least&lt;/font&gt;&lt;/b&gt;&lt;b style=&quot;color: rgb(0, 0, 204);&quot;&gt;(&lt;/b&gt;&lt;i style=&quot;&quot;&gt; min &lt;/i&gt;&lt;b style=&quot;color: rgb(0, 0, 204);&quot;&gt;)&lt;/b&gt;&lt;/li&gt;&lt;li&gt;&lt;b style=&quot;&quot;&gt;&lt;font color=&quot;#00cc00&quot;&gt;expect::at_most&lt;/font&gt;&lt;/b&gt;&lt;b style=&quot;color: rgb(0, 0, 204);&quot;&gt;(&lt;/b&gt;&lt;i&gt;&amp;nbsp;max&amp;nbsp;&lt;/i&gt;&lt;b style=&quot;color: rgb(0, 0, 204);&quot;&gt;)&lt;/b&gt;&lt;/li&gt;&lt;li&gt;&lt;b style=&quot;&quot;&gt;&lt;font color=&quot;#00cc00&quot;&gt;expect::never&lt;/font&gt;&lt;/b&gt;&lt;b style=&quot;color: rgb(0, 0, 204);&quot;&gt;(&lt;/b&gt;&lt;b style=&quot;color: rgb(0, 0, 204);&quot;&gt;)&lt;/b&gt;&lt;/li&gt;&lt;li&gt;&lt;b style=&quot;&quot;&gt;&lt;font color=&quot;#00cc00&quot;&gt;expect::once&lt;/font&gt;&lt;/b&gt;&lt;b style=&quot;color: rgb(0, 0, 204);&quot;&gt;(&lt;/b&gt;&lt;b style=&quot;color: rgb(0, 0, 204);&quot;&gt;)&lt;/b&gt;&lt;/li&gt;&lt;li&gt;&lt;b style=&quot;&quot;&gt;&lt;font color=&quot;#00cc00&quot;&gt;expect::twice&lt;/font&gt;&lt;/b&gt;&lt;b style=&quot;color: rgb(0, 0, 204);&quot;&gt;(&lt;/b&gt;&lt;b style=&quot;color: rgb(0, 0, 204);&quot;&gt;)&lt;/b&gt;&lt;/li&gt;&lt;/ul&gt;" style="text;html=1;align=left;verticalAlign=top;resizable=0;points=[];autosize=1;strokeColor=#00CC00;fillColor=#fad9d5;shadow=1;glass=0;rounded=1;sketch=1;curveFitting=1;jiggle=2;fontColor=#393C56;arcSize=31;fontSize=12;" parent="1" vertex="1">
          <mxGeometry x="448" y="510" width="200" height="140" as="geometry" />
        </mxCell>
        <mxCell id="xwFTqMN2i0QqSYNdKOKp-40" value="&lt;ul&gt;&lt;li&gt;&lt;b style=&quot;&quot;&gt;&lt;font color=&quot;#66b2ff&quot;&gt;then::invoke&lt;/font&gt;&lt;/b&gt;&lt;b style=&quot;color: rgb(0, 0, 204);&quot;&gt;(&lt;/b&gt;&amp;nbsp;&lt;i&gt;func&lt;/i&gt;&amp;nbsp;&lt;b style=&quot;color: rgb(0, 0, 204);&quot;&gt;)&lt;/b&gt;&lt;/li&gt;&lt;li&gt;&lt;b style=&quot;&quot;&gt;&lt;font color=&quot;#66b2ff&quot;&gt;&lt;b style=&quot;color: rgb(57, 60, 86);&quot;&gt;&lt;font color=&quot;#66b2ff&quot;&gt;then&lt;/font&gt;&lt;/b&gt;::apply_arg&lt;/font&gt;&lt;/b&gt;&lt;b style=&quot;color: rgb(0, 0, 204);&quot;&gt;&amp;lt;&lt;/b&gt;&lt;i style=&quot;&quot;&gt; i &lt;/i&gt;&lt;b style=&quot;color: rgb(0, 0, 204);&quot;&gt;&amp;gt;(&lt;/b&gt;&lt;i style=&quot;&quot;&gt; func &lt;/i&gt;&lt;b style=&quot;color: rgb(0, 0, 204);&quot;&gt;)&lt;/b&gt;&lt;/li&gt;&lt;li&gt;&lt;b style=&quot;font-weight: bold;&quot;&gt;&lt;font color=&quot;#66b2ff&quot;&gt;&lt;b style=&quot;color: rgb(57, 60, 86);&quot;&gt;&lt;font color=&quot;#66b2ff&quot;&gt;then&lt;/font&gt;&lt;/b&gt;::apply_args&lt;/font&gt;&lt;/b&gt;&lt;b style=&quot;color: rgb(0, 0, 204); font-weight: bold;&quot;&gt;&amp;lt;&lt;/b&gt;&lt;i style=&quot;color: rgb(57, 60, 86); font-weight: 400;&quot;&gt;&amp;nbsp;i &lt;/i&gt;[&lt;b style=&quot;&quot;&gt;&lt;font color=&quot;#0000cc&quot;&gt;,&lt;/font&gt;&lt;/b&gt;&lt;i style=&quot;color: rgb(57, 60, 86); font-weight: 400;&quot;&gt; is &lt;/i&gt;&lt;span style=&quot;color: rgb(57, 60, 86);&quot;&gt;...]&lt;i&gt;&amp;nbsp;&lt;/i&gt;&lt;/span&gt;&lt;b style=&quot;color: rgb(0, 0, 204); font-weight: bold;&quot;&gt;&amp;gt;&lt;/b&gt;&lt;b style=&quot;color: rgb(0, 0, 204);&quot;&gt;(&lt;/b&gt;&lt;i&gt; func &lt;/i&gt;&lt;b style=&quot;color: rgb(0, 0, 204);&quot;&gt;)&lt;/b&gt;&lt;/li&gt;&lt;li&gt;&lt;b style=&quot;&quot;&gt;&lt;font color=&quot;#66b2ff&quot;&gt;&lt;b style=&quot;color: rgb(57, 60, 86);&quot;&gt;&lt;font color=&quot;#66b2ff&quot;&gt;then&lt;/font&gt;&lt;/b&gt;::apply_all&lt;/font&gt;&lt;/b&gt;&lt;b style=&quot;color: rgb(0, 0, 204);&quot;&gt;(&lt;/b&gt;&lt;i&gt;&amp;nbsp;func&amp;nbsp;&lt;/i&gt;&lt;b style=&quot;color: rgb(0, 0, 204);&quot;&gt;)&lt;/b&gt;&lt;/li&gt;&lt;/ul&gt;" style="text;html=1;align=left;verticalAlign=top;resizable=0;points=[];autosize=1;strokeColor=#66b2ff;fillColor=#fad9d5;shadow=1;glass=0;rounded=1;sketch=1;curveFitting=1;jiggle=2;fontColor=#393C56;arcSize=31;fontSize=12;" parent="1" vertex="1">
          <mxGeometry x="18" y="600" width="260" height="100" as="geometry" />
        </mxCell>
        <mxCell id="xwFTqMN2i0QqSYNdKOKp-42" value="&lt;ul&gt;&lt;li&gt;&lt;b style=&quot;&quot;&gt;&lt;font color=&quot;#990099&quot;&gt;expect::arg&lt;/font&gt;&lt;/b&gt;&lt;b style=&quot;color: rgb(0, 0, 204);&quot;&gt;&amp;lt;&lt;/b&gt;&lt;i&gt;&amp;nbsp;i&amp;nbsp;&lt;/i&gt;&lt;b style=&quot;color: rgb(0, 0, 204);&quot;&gt;&amp;gt;(&lt;/b&gt;&lt;i&gt;&amp;nbsp;&lt;font color=&quot;#ff66ff&quot;&gt;matcher&lt;/font&gt;&lt;/i&gt;&lt;b style=&quot;color: rgb(0, 0, 204);&quot;&gt;&lt;i style=&quot;color: rgb(57, 60, 86); font-weight: 400;&quot;&gt;&amp;nbsp;&lt;/i&gt;&lt;span style=&quot;color: rgb(57, 60, 86); font-weight: 400;&quot;&gt;[&lt;/span&gt;&lt;font style=&quot;font-weight: 400;&quot; color=&quot;#0000cc&quot;&gt;,&lt;/font&gt;&lt;i style=&quot;color: rgb(57, 60, 86); font-weight: 400;&quot;&gt;&amp;nbsp;projection&amp;nbsp;&lt;/i&gt;&lt;span style=&quot;color: rgb(57, 60, 86); font-weight: 400;&quot;&gt;]&lt;/span&gt;&lt;i style=&quot;color: rgb(57, 60, 86); font-weight: 400;&quot;&gt;&amp;nbsp;&lt;/i&gt;)&lt;/b&gt;&lt;/li&gt;&lt;li&gt;&lt;b&gt;&lt;font color=&quot;#990099&quot;&gt;expect::args&lt;/font&gt;&lt;/b&gt;&lt;b style=&quot;color: rgb(0, 0, 204);&quot;&gt;&lt;b&gt;&amp;lt;&lt;/b&gt;&lt;i style=&quot;color: rgb(57, 60, 86); font-weight: 400;&quot;&gt;&amp;nbsp;i&amp;nbsp;&lt;/i&gt;&lt;span style=&quot;color: rgb(57, 60, 86); font-weight: 400;&quot;&gt;[&lt;/span&gt;&lt;b style=&quot;color: rgb(57, 60, 86);&quot;&gt;&lt;font color=&quot;#0000cc&quot;&gt;,&lt;/font&gt;&lt;/b&gt;&lt;i style=&quot;color: rgb(57, 60, 86); font-weight: 400;&quot;&gt;&amp;nbsp;is&amp;nbsp;&lt;/i&gt;&lt;span style=&quot;color: rgb(57, 60, 86); font-weight: 400;&quot;&gt;...]&lt;i&gt;&amp;nbsp;&lt;/i&gt;&lt;/span&gt;&lt;b&gt;&amp;gt;&lt;/b&gt;(&lt;/b&gt;&lt;i&gt;&amp;nbsp;&lt;font color=&quot;#ff66ff&quot;&gt;matcher&lt;/font&gt;&lt;/i&gt;&lt;b style=&quot;color: rgb(0, 0, 204);&quot;&gt;&lt;i style=&quot;color: rgb(57, 60, 86); font-weight: 400;&quot;&gt;&amp;nbsp;&lt;/i&gt;&lt;span style=&quot;color: rgb(57, 60, 86); font-weight: 400;&quot;&gt;[&lt;/span&gt;&lt;font style=&quot;font-weight: 400;&quot; color=&quot;#0000cc&quot;&gt;,&lt;/font&gt;&lt;i style=&quot;color: rgb(57, 60, 86); font-weight: 400;&quot;&gt;&amp;nbsp;projections&amp;nbsp;&lt;/i&gt;&lt;span style=&quot;color: rgb(57, 60, 86); font-weight: 400;&quot;&gt;...]&lt;/span&gt;&lt;i style=&quot;color: rgb(57, 60, 86); font-weight: 400;&quot;&gt;&amp;nbsp;&lt;/i&gt;)&lt;/b&gt;&lt;/li&gt;&lt;li&gt;&lt;b&gt;&lt;font color=&quot;#990099&quot;&gt;expect::all_args&lt;/font&gt;&lt;/b&gt;&lt;b style=&quot;color: rgb(0, 0, 204);&quot;&gt;(&lt;/b&gt;&lt;i&gt;&amp;nbsp;&lt;font color=&quot;#ff66ff&quot;&gt;matcher&lt;/font&gt;&amp;nbsp;&lt;/i&gt;&lt;b style=&quot;color: rgb(0, 0, 204);&quot;&gt;)&lt;/b&gt;&lt;/li&gt;&lt;/ul&gt;" style="text;html=1;align=left;verticalAlign=top;resizable=0;points=[];autosize=1;strokeColor=#990099;fillColor=#fad9d5;shadow=1;glass=0;rounded=1;sketch=1;curveFitting=1;jiggle=2;fontColor=#393C56;arcSize=31;fontSize=12;" parent="1" vertex="1">
          <mxGeometry x="288" y="300" width="340" height="80" as="geometry" />
        </mxCell>
        <mxCell id="xwFTqMN2i0QqSYNdKOKp-47" value="" style="group" parent="1" vertex="1" connectable="0">
          <mxGeometry x="-12" y="436.5" width="370" height="153.5" as="geometry" />
        </mxCell>
        <mxCell id="xwFTqMN2i0QqSYNdKOKp-44" value="" style="rounded=1;whiteSpace=wrap;html=1;strokeColor=#006600;fontColor=#393C56;fillColor=#FAD9D5;sketch=1;curveFitting=1;jiggle=2;shadow=1;" parent="xwFTqMN2i0QqSYNdKOKp-47" vertex="1">
          <mxGeometry x="20" y="4.595808383233533" width="350" height="147.06586826347305" as="geometry" />
        </mxCell>
        <mxCell id="xwFTqMN2i0QqSYNdKOKp-43" value="&lt;div style=&quot;line-height: 14.4px;&quot;&gt;With Sequences-Types:&lt;br&gt;&lt;/div&gt;&lt;div style=&quot;line-height: 14.4px;&quot;&gt;&lt;ul style=&quot;line-height: 14.4px;&quot;&gt;&lt;li&gt;&lt;b style=&quot;background-color: initial; color: rgb(0, 102, 0);&quot;&gt;LazySequence&amp;nbsp;&lt;/b&gt;&lt;span style=&quot;background-color: initial;&quot;&gt;(makes the least possible progress)&lt;/span&gt;&lt;/li&gt;&lt;li style=&quot;&quot;&gt;&lt;b&gt;&lt;font color=&quot;#006600&quot;&gt;GreedySequence&lt;/font&gt;&lt;/b&gt;&lt;b style=&quot;color: rgb(0, 102, 0);&quot;&gt;&amp;nbsp;&lt;/b&gt;(makes the most possible progress)&lt;/li&gt;&lt;li style=&quot;&quot;&gt;&lt;b&gt;&lt;font color=&quot;#006600&quot;&gt;SequenceT&lt;/font&gt;&amp;nbsp;&lt;/b&gt;(alias for&lt;b&gt;&amp;nbsp;&lt;font color=&quot;#006600&quot;&gt;LazySequence&lt;/font&gt;&lt;/b&gt;)&lt;/li&gt;&lt;/ul&gt;&lt;/div&gt;" style="text;html=1;align=left;verticalAlign=middle;resizable=0;points=[];autosize=1;strokeColor=none;fillColor=none;fontColor=#393C56;" parent="xwFTqMN2i0QqSYNdKOKp-47" vertex="1">
          <mxGeometry x="31" y="59.00383233532934" width="350" height="100" as="geometry" />
        </mxCell>
        <mxCell id="xwFTqMN2i0QqSYNdKOKp-45" value="&lt;ul style=&quot;&quot;&gt;&lt;li&gt;&lt;b&gt;&lt;font color=&quot;#006600&quot;&gt;expect::in_sequence&lt;/font&gt;&lt;/b&gt;&lt;b style=&quot;color: rgb(0, 0, 204);&quot;&gt;(&lt;/b&gt;&amp;nbsp;&lt;i&gt;s&lt;/i&gt;&amp;nbsp;&lt;b style=&quot;color: rgb(0, 0, 204);&quot;&gt;)&lt;/b&gt;&lt;/li&gt;&lt;li&gt;&lt;b&gt;&lt;font color=&quot;#006600&quot;&gt;expect::in_sequences&lt;/font&gt;&lt;/b&gt;&lt;b style=&quot;color: rgb(0, 0, 204);&quot;&gt;(&lt;/b&gt;&lt;i&gt;&amp;nbsp;s1&lt;/i&gt;&lt;font color=&quot;#0000cc&quot;&gt;&lt;b&gt;,&lt;/b&gt;&lt;/font&gt;&lt;i&gt;&amp;nbsp;s2&amp;nbsp;&lt;/i&gt;[&lt;font color=&quot;#0000cc&quot;&gt;&lt;b&gt;,&lt;/b&gt;&lt;/font&gt;&lt;i&gt;&amp;nbsp;other-sequences&amp;nbsp;&lt;/i&gt;...]&lt;i&gt;&amp;nbsp;&lt;/i&gt;&lt;b style=&quot;color: rgb(0, 0, 204);&quot;&gt;)&lt;/b&gt;&lt;/li&gt;&lt;/ul&gt;" style="text;html=1;align=left;verticalAlign=middle;resizable=0;points=[];autosize=1;strokeColor=none;fillColor=none;fontColor=#393C56;" parent="xwFTqMN2i0QqSYNdKOKp-47" vertex="1">
          <mxGeometry x="10" y="-0.0041916167664668436" width="350" height="70" as="geometry" />
        </mxCell>
        <mxCell id="xwFTqMN2i0QqSYNdKOKp-79" value="" style="group" parent="1" vertex="1" connectable="0">
          <mxGeometry x="658" y="340" width="500" height="380" as="geometry" />
        </mxCell>
        <mxCell id="xwFTqMN2i0QqSYNdKOKp-49" value="" style="rounded=1;whiteSpace=wrap;html=1;strokeColor=#FF66FF;fontColor=#393C56;fillColor=#FAD9D5;sketch=1;curveFitting=1;jiggle=2;shadow=1;arcSize=13;" parent="xwFTqMN2i0QqSYNdKOKp-79" vertex="1">
          <mxGeometry width="500" height="380" as="geometry" />
        </mxCell>
        <mxCell id="xwFTqMN2i0QqSYNdKOKp-69" value="" style="group" parent="xwFTqMN2i0QqSYNdKOKp-79" vertex="1" connectable="0">
          <mxGeometry y="140.00335329341317" width="480.3921568627451" height="53.99664670658683" as="geometry" />
        </mxCell>
        <mxCell id="xwFTqMN2i0QqSYNdKOKp-57" value="&lt;div style=&quot;line-height: 14.4px;&quot;&gt;&lt;u&gt;Floating-Point-Matchers:&lt;/u&gt;&lt;/div&gt;" style="text;html=1;align=left;verticalAlign=middle;resizable=0;points=[];autosize=1;strokeColor=none;fillColor=none;fontColor=#393C56;" parent="xwFTqMN2i0QqSYNdKOKp-69" vertex="1">
          <mxGeometry x="14.705882352941176" width="150" height="30" as="geometry" />
        </mxCell>
        <mxCell id="xwFTqMN2i0QqSYNdKOKp-59" value="&lt;ul style=&quot;text-wrap: nowrap; line-height: 14.4px;&quot;&gt;&lt;li&gt;&lt;b style=&quot;background-color: initial;&quot;&gt;&lt;font color=&quot;#ff66ff&quot;&gt;matches::NaN&lt;/font&gt;&lt;font color=&quot;#0000cc&quot;&gt;()&lt;/font&gt;&lt;/b&gt;&lt;/li&gt;&lt;/ul&gt;" style="text;html=1;align=left;verticalAlign=middle;whiteSpace=wrap;rounded=0;fontColor=#393C56;" parent="xwFTqMN2i0QqSYNdKOKp-69" vertex="1">
          <mxGeometry y="23.99664670658683" width="147.05882352941177" height="30" as="geometry" />
        </mxCell>
        <mxCell id="xwFTqMN2i0QqSYNdKOKp-60" value="&lt;ul style=&quot;text-wrap: nowrap; line-height: 14.4px;&quot;&gt;&lt;li&gt;&lt;b style=&quot;background-color: initial;&quot;&gt;&lt;font color=&quot;#ff66ff&quot;&gt;matches::approx_abs&lt;/font&gt;&lt;/b&gt;&lt;b&gt;&lt;font color=&quot;#0000cc&quot;&gt;(&lt;/font&gt;&lt;/b&gt;&amp;nbsp;&lt;i&gt;value&lt;/i&gt;&lt;b&gt;&lt;font color=&quot;#0000cc&quot;&gt;,&lt;/font&gt;&lt;/b&gt;&lt;i&gt;&amp;nbsp;eps&lt;/i&gt;&amp;nbsp;&lt;b&gt;&lt;font color=&quot;#0000cc&quot;&gt;)&lt;/font&gt;&lt;/b&gt;&lt;/li&gt;&lt;li&gt;&lt;b style=&quot;background-color: initial;&quot;&gt;&lt;font color=&quot;#ff66ff&quot;&gt;matches::approx_rel&lt;/font&gt;&lt;/b&gt;&lt;b&gt;&lt;font color=&quot;#0000cc&quot;&gt;(&lt;/font&gt;&lt;/b&gt;&amp;nbsp;&lt;i&gt;value &lt;/i&gt;[&lt;b&gt;&lt;font color=&quot;#0000cc&quot;&gt;,&lt;/font&gt;&lt;/b&gt;&lt;i&gt; rel&lt;/i&gt;]&amp;nbsp;&lt;b&gt;&lt;font color=&quot;#0000cc&quot;&gt;)&lt;/font&gt;&lt;/b&gt;&lt;/li&gt;&lt;/ul&gt;" style="text;html=1;align=left;verticalAlign=middle;whiteSpace=wrap;rounded=0;fontColor=#393C56;" parent="xwFTqMN2i0QqSYNdKOKp-69" vertex="1">
          <mxGeometry x="166.66666666666666" y="9.99664670658683" width="245.09803921568627" height="44" as="geometry" />
        </mxCell>
        <mxCell id="xwFTqMN2i0QqSYNdKOKp-71" value="" style="group" parent="xwFTqMN2i0QqSYNdKOKp-79" vertex="1" connectable="0">
          <mxGeometry y="10.00335329341317" width="455.88235294117646" height="53.99664670658683" as="geometry" />
        </mxCell>
        <mxCell id="xwFTqMN2i0QqSYNdKOKp-63" value="&lt;ul style=&quot;text-wrap: nowrap; line-height: 14.4px;&quot;&gt;&lt;li&gt;&lt;b style=&quot;background-color: initial;&quot;&gt;&lt;font color=&quot;#ff66ff&quot;&gt;matches::instance&lt;/font&gt;&lt;/b&gt;&lt;b&gt;&lt;font color=&quot;#0000cc&quot;&gt;(&lt;/font&gt;&lt;/b&gt;&amp;nbsp;&lt;i&gt;ref&lt;/i&gt;&amp;nbsp;&lt;b&gt;&lt;font color=&quot;#0000cc&quot;&gt;)&lt;/font&gt;&lt;/b&gt;&lt;/li&gt;&lt;/ul&gt;" style="text;html=1;align=left;verticalAlign=middle;whiteSpace=wrap;rounded=0;fontColor=#393C56;" parent="xwFTqMN2i0QqSYNdKOKp-71" vertex="1">
          <mxGeometry x="294.11764705882354" y="3.99664670658683" width="186.27450980392157" height="26" as="geometry" />
        </mxCell>
        <mxCell id="xwFTqMN2i0QqSYNdKOKp-61" value="&lt;div style=&quot;line-height: 14.4px;&quot;&gt;&lt;u&gt;General-Matchers:&lt;/u&gt;&lt;/div&gt;" style="text;html=1;align=left;verticalAlign=middle;resizable=0;points=[];autosize=1;strokeColor=none;fillColor=none;fontColor=#393C56;" parent="xwFTqMN2i0QqSYNdKOKp-71" vertex="1">
          <mxGeometry x="14.705882352941176" width="120" height="30" as="geometry" />
        </mxCell>
        <mxCell id="xwFTqMN2i0QqSYNdKOKp-62" value="&lt;ul style=&quot;text-wrap: nowrap; line-height: 14.4px;&quot;&gt;&lt;li&gt;&lt;b style=&quot;background-color: initial;&quot;&gt;&lt;font color=&quot;#ff66ff&quot;&gt;matches::predicate&lt;/font&gt;&lt;/b&gt;&lt;b&gt;&lt;font color=&quot;#0000cc&quot;&gt;(&lt;/font&gt;&lt;/b&gt;&amp;nbsp;&lt;i&gt;predicate&lt;/i&gt;&lt;i style=&quot;font-style: italic;&quot;&gt;&amp;nbsp;&lt;/i&gt;&lt;span style=&quot;font-style: normal;&quot;&gt;[&lt;/span&gt;&lt;b style=&quot;font-style: normal;&quot;&gt;&lt;font color=&quot;#0000cc&quot;&gt;,&lt;/font&gt;&lt;/b&gt;&lt;i&gt;&amp;nbsp;description&lt;/i&gt;&lt;b style=&quot;&quot;&gt;&lt;font color=&quot;#0000cc&quot;&gt;,&lt;/font&gt;&lt;/b&gt;&lt;i&gt; invertDesc&lt;/i&gt;&lt;span style=&quot;font-style: normal;&quot;&gt;]&lt;/span&gt;&amp;nbsp;&lt;b&gt;&lt;font color=&quot;#0000cc&quot;&gt;)&lt;/font&gt;&lt;/b&gt;&lt;/li&gt;&lt;/ul&gt;" style="text;html=1;align=left;verticalAlign=middle;whiteSpace=wrap;rounded=0;fontColor=#393C56;" parent="xwFTqMN2i0QqSYNdKOKp-71" vertex="1">
          <mxGeometry y="23.99664670658683" width="352.94117647058823" height="30" as="geometry" />
        </mxCell>
        <mxCell id="xwFTqMN2i0QqSYNdKOKp-70" value="&lt;ul style=&quot;text-wrap: nowrap; line-height: 14.4px;&quot;&gt;&lt;li&gt;&lt;b style=&quot;background-color: initial;&quot;&gt;&lt;font color=&quot;#ff66ff&quot;&gt;matches::_&lt;/font&gt;&lt;/b&gt;&lt;/li&gt;&lt;/ul&gt;" style="text;html=1;align=left;verticalAlign=middle;whiteSpace=wrap;rounded=0;fontColor=#393C56;" parent="xwFTqMN2i0QqSYNdKOKp-71" vertex="1">
          <mxGeometry x="166.66666666666666" y="3.99664670658683" width="107.84313725490196" height="26" as="geometry" />
        </mxCell>
        <mxCell id="xwFTqMN2i0QqSYNdKOKp-68" value="" style="group" parent="xwFTqMN2i0QqSYNdKOKp-79" vertex="1" connectable="0">
          <mxGeometry y="70.00335329341317" width="480.3921568627451" height="59.99664670658683" as="geometry" />
        </mxCell>
        <mxCell id="xwFTqMN2i0QqSYNdKOKp-50" value="&lt;div style=&quot;line-height: 14.4px;&quot;&gt;&lt;u&gt;Comparison-Matchers:&lt;/u&gt;&lt;/div&gt;" style="text;html=1;align=left;verticalAlign=middle;resizable=0;points=[];autosize=1;strokeColor=none;fillColor=none;fontColor=#393C56;" parent="xwFTqMN2i0QqSYNdKOKp-68" vertex="1">
          <mxGeometry x="14.705882352941176" width="140" height="30" as="geometry" />
        </mxCell>
        <mxCell id="xwFTqMN2i0QqSYNdKOKp-53" value="&lt;ul style=&quot;text-wrap: nowrap; line-height: 14.4px;&quot;&gt;&lt;li&gt;&lt;b style=&quot;background-color: initial;&quot;&gt;&lt;font color=&quot;#ff66ff&quot;&gt;matches::eq&lt;/font&gt;&lt;/b&gt;&lt;b&gt;&lt;font color=&quot;#0000cc&quot;&gt;(&lt;/font&gt;&lt;/b&gt; &lt;i&gt;value&lt;/i&gt; &lt;b&gt;&lt;font color=&quot;#0000cc&quot;&gt;)&lt;/font&gt;&lt;/b&gt;&lt;/li&gt;&lt;li&gt;&lt;b style=&quot;&quot;&gt;&lt;font color=&quot;#ff66ff&quot;&gt;matches::ne&lt;/font&gt;&lt;/b&gt;&lt;b&gt;&lt;font color=&quot;#0000cc&quot;&gt;(&lt;/font&gt;&lt;/b&gt;&amp;nbsp;&lt;i&gt;value&lt;/i&gt;&amp;nbsp;&lt;b&gt;&lt;font color=&quot;#0000cc&quot;&gt;)&lt;/font&gt;&lt;/b&gt;&lt;/li&gt;&lt;/ul&gt;" style="text;html=1;align=left;verticalAlign=middle;whiteSpace=wrap;rounded=0;fontColor=#393C56;" parent="xwFTqMN2i0QqSYNdKOKp-68" vertex="1">
          <mxGeometry y="29.99664670658683" width="147.05882352941177" height="30" as="geometry" />
        </mxCell>
        <mxCell id="xwFTqMN2i0QqSYNdKOKp-55" value="&lt;ul style=&quot;text-wrap: nowrap; line-height: 14.4px;&quot;&gt;&lt;li&gt;&lt;b style=&quot;background-color: initial;&quot;&gt;&lt;font color=&quot;#ff66ff&quot;&gt;matches::lt&lt;/font&gt;&lt;/b&gt;&lt;b&gt;&lt;font color=&quot;#0000cc&quot;&gt;(&lt;/font&gt;&lt;/b&gt;&amp;nbsp;&lt;i&gt;value&lt;/i&gt;&amp;nbsp;&lt;b&gt;&lt;font color=&quot;#0000cc&quot;&gt;)&lt;/font&gt;&lt;/b&gt;&lt;/li&gt;&lt;li&gt;&lt;b style=&quot;&quot;&gt;&lt;font color=&quot;#ff66ff&quot;&gt;matches::le&lt;/font&gt;&lt;/b&gt;&lt;b&gt;&lt;font color=&quot;#0000cc&quot;&gt;(&lt;/font&gt;&lt;/b&gt;&amp;nbsp;&lt;i&gt;value&lt;/i&gt;&amp;nbsp;&lt;b&gt;&lt;font color=&quot;#0000cc&quot;&gt;)&lt;/font&gt;&lt;/b&gt;&lt;/li&gt;&lt;/ul&gt;" style="text;html=1;align=left;verticalAlign=middle;whiteSpace=wrap;rounded=0;fontColor=#393C56;" parent="xwFTqMN2i0QqSYNdKOKp-68" vertex="1">
          <mxGeometry x="166.66666666666666" y="29.99664670658683" width="147.05882352941177" height="30" as="geometry" />
        </mxCell>
        <mxCell id="xwFTqMN2i0QqSYNdKOKp-56" value="&lt;ul style=&quot;text-wrap: nowrap; line-height: 14.4px;&quot;&gt;&lt;li&gt;&lt;b style=&quot;background-color: initial;&quot;&gt;&lt;font color=&quot;#ff66ff&quot;&gt;matches::gt&lt;/font&gt;&lt;/b&gt;&lt;b&gt;&lt;font color=&quot;#0000cc&quot;&gt;(&lt;/font&gt;&lt;/b&gt;&amp;nbsp;&lt;i&gt;value&lt;/i&gt;&amp;nbsp;&lt;b&gt;&lt;font color=&quot;#0000cc&quot;&gt;)&lt;/font&gt;&lt;/b&gt;&lt;/li&gt;&lt;li&gt;&lt;b style=&quot;&quot;&gt;&lt;font color=&quot;#ff66ff&quot;&gt;matches::ge&lt;/font&gt;&lt;/b&gt;&lt;b&gt;&lt;font color=&quot;#0000cc&quot;&gt;(&lt;/font&gt;&lt;/b&gt;&amp;nbsp;&lt;i&gt;value&lt;/i&gt;&amp;nbsp;&lt;b&gt;&lt;font color=&quot;#0000cc&quot;&gt;)&lt;/font&gt;&lt;/b&gt;&lt;/li&gt;&lt;/ul&gt;" style="text;html=1;align=left;verticalAlign=middle;whiteSpace=wrap;rounded=0;fontColor=#393C56;" parent="xwFTqMN2i0QqSYNdKOKp-68" vertex="1">
          <mxGeometry x="323.52941176470586" y="29.99664670658683" width="156.8627450980392" height="30" as="geometry" />
        </mxCell>
        <mxCell id="xwFTqMN2i0QqSYNdKOKp-72" value="" style="group" parent="xwFTqMN2i0QqSYNdKOKp-79" vertex="1" connectable="0">
          <mxGeometry y="194.00335329341317" width="500" height="75.99664670658683" as="geometry" />
        </mxCell>
        <mxCell id="xwFTqMN2i0QqSYNdKOKp-64" value="&lt;div style=&quot;line-height: 14.4px;&quot;&gt;&lt;u&gt;Range-Matchers:&lt;/u&gt;&lt;/div&gt;" style="text;html=1;align=left;verticalAlign=middle;resizable=0;points=[];autosize=1;strokeColor=none;fillColor=none;fontColor=#393C56;" parent="xwFTqMN2i0QqSYNdKOKp-72" vertex="1">
          <mxGeometry x="14.705882352941176" width="120" height="30" as="geometry" />
        </mxCell>
        <mxCell id="xwFTqMN2i0QqSYNdKOKp-65" value="&lt;ul style=&quot;text-wrap: nowrap; line-height: 14.4px; font-size: 12px;&quot;&gt;&lt;li style=&quot;font-size: 12px;&quot;&gt;&lt;b style=&quot;background-color: initial; font-size: 12px;&quot;&gt;&lt;font style=&quot;font-size: 12px;&quot; color=&quot;#ff66ff&quot;&gt;matches::range::is_empty&lt;/font&gt;&lt;/b&gt;&lt;b style=&quot;font-size: 12px;&quot;&gt;&lt;font style=&quot;font-size: 12px;&quot; color=&quot;#0000cc&quot;&gt;(&lt;/font&gt;&lt;/b&gt;&lt;b style=&quot;font-size: 12px;&quot;&gt;&lt;font style=&quot;font-size: 12px;&quot; color=&quot;#0000cc&quot;&gt;)&lt;/font&gt;&lt;/b&gt;&lt;/li&gt;&lt;li style=&quot;font-size: 12px;&quot;&gt;&lt;b style=&quot;font-size: 12px;&quot;&gt;&lt;font style=&quot;font-size: 12px;&quot; color=&quot;#ff66ff&quot;&gt;matches::range::has_size&lt;/font&gt;&lt;/b&gt;&lt;b style=&quot;font-size: 12px;&quot;&gt;&lt;font style=&quot;font-size: 12px;&quot; color=&quot;#0000cc&quot;&gt;(&lt;/font&gt;&lt;/b&gt;&amp;nbsp;&lt;i style=&quot;font-size: 12px;&quot;&gt;value&lt;/i&gt;&amp;nbsp;&lt;b style=&quot;font-size: 12px;&quot;&gt;&lt;font style=&quot;font-size: 12px;&quot; color=&quot;#0000cc&quot;&gt;)&lt;/font&gt;&lt;/b&gt;&lt;/li&gt;&lt;li&gt;&lt;b style=&quot;background-color: initial;&quot;&gt;&lt;font color=&quot;#ff66ff&quot;&gt;matches::range::is_sorted&lt;/font&gt;&lt;/b&gt;&lt;b&gt;&lt;font color=&quot;#0000cc&quot;&gt;(&lt;/font&gt;&lt;/b&gt;&lt;b&gt;&lt;font color=&quot;#0000cc&quot;&gt;)&lt;/font&gt;&lt;/b&gt;&lt;/li&gt;&lt;/ul&gt;" style="text;html=1;align=left;verticalAlign=middle;whiteSpace=wrap;rounded=0;fontColor=#393C56;fontSize=12;" parent="xwFTqMN2i0QqSYNdKOKp-72" vertex="1">
          <mxGeometry y="19.99664670658683" width="235.2941176470588" height="56" as="geometry" />
        </mxCell>
        <mxCell id="xwFTqMN2i0QqSYNdKOKp-66" value="&lt;ul style=&quot;text-wrap: nowrap; line-height: 14.4px; font-size: 12px;&quot;&gt;&lt;li style=&quot;font-size: 12px;&quot;&gt;&lt;b style=&quot;background-color: initial; font-size: 12px;&quot;&gt;&lt;font style=&quot;font-size: 12px;&quot; color=&quot;#ff66ff&quot;&gt;matches::range::eq&lt;/font&gt;&lt;/b&gt;&lt;b style=&quot;font-size: 12px;&quot;&gt;&lt;font style=&quot;font-size: 12px;&quot; color=&quot;#0000cc&quot;&gt;(&lt;/font&gt;&lt;/b&gt;&amp;nbsp;r&lt;i style=&quot;font-size: 12px;&quot;&gt;&amp;nbsp;&lt;/i&gt;[&lt;b style=&quot;font-size: 12px;&quot;&gt;&lt;font style=&quot;font-size: 12px;&quot; color=&quot;#0000cc&quot;&gt;,&lt;/font&gt;&lt;/b&gt;&lt;i style=&quot;font-size: 12px;&quot;&gt;&amp;nbsp;comp&lt;/i&gt;]&amp;nbsp;&lt;b style=&quot;font-size: 12px;&quot;&gt;&lt;font style=&quot;font-size: 12px;&quot; color=&quot;#0000cc&quot;&gt;)&lt;/font&gt;&lt;/b&gt;&lt;/li&gt;&lt;li style=&quot;font-size: 12px;&quot;&gt;&lt;b style=&quot;font-size: 12px;&quot;&gt;&lt;font style=&quot;font-size: 12px;&quot; color=&quot;#ff66ff&quot;&gt;matches::range::unordered_eq&lt;/font&gt;&lt;/b&gt;&lt;b style=&quot;font-size: 12px;&quot;&gt;&lt;font style=&quot;font-size: 12px;&quot; color=&quot;#0000cc&quot;&gt;(&lt;/font&gt;&lt;/b&gt;&amp;nbsp;&lt;b style=&quot;font-size: 12px;&quot;&gt;&lt;font style=&quot;font-size: 12px;&quot; color=&quot;#0000cc&quot;&gt;&lt;span style=&quot;color: rgb(57, 60, 86); font-weight: 400; font-size: 12px;&quot;&gt;r&lt;/span&gt;&lt;i style=&quot;color: rgb(57, 60, 86); font-weight: 400; font-size: 12px;&quot;&gt;&amp;nbsp;&lt;/i&gt;&lt;span style=&quot;color: rgb(57, 60, 86); font-weight: 400; font-size: 12px;&quot;&gt;[&lt;/span&gt;&lt;b style=&quot;color: rgb(57, 60, 86); font-size: 12px;&quot;&gt;&lt;font style=&quot;font-size: 12px;&quot; color=&quot;#0000cc&quot;&gt;,&lt;/font&gt;&lt;/b&gt;&lt;i style=&quot;color: rgb(57, 60, 86); font-weight: 400; font-size: 12px;&quot;&gt;&amp;nbsp;comp&lt;/i&gt;&lt;span style=&quot;color: rgb(57, 60, 86); font-weight: 400; font-size: 12px;&quot;&gt;]&lt;/span&gt;)&lt;/font&gt;&lt;/b&gt;&lt;/li&gt;&lt;li style=&quot;font-size: 12px;&quot;&gt;&lt;b style=&quot;background-color: initial; font-size: 12px;&quot;&gt;&lt;font style=&quot;font-size: 12px;&quot; color=&quot;#ff66ff&quot;&gt;matches::range::each_element&lt;/font&gt;&lt;/b&gt;&lt;b style=&quot;font-size: 12px;&quot;&gt;&lt;font style=&quot;font-size: 12px;&quot; color=&quot;#0000cc&quot;&gt;(&lt;/font&gt;&lt;/b&gt;&amp;nbsp;&lt;i style=&quot;font-size: 12px;&quot;&gt;&lt;font color=&quot;#ff66ff&quot; style=&quot;font-size: 12px;&quot;&gt;matcher&amp;nbsp;&lt;/font&gt;&lt;/i&gt;&lt;b style=&quot;font-size: 12px;&quot;&gt;&lt;font style=&quot;font-size: 12px;&quot; color=&quot;#0000cc&quot;&gt;)&lt;/font&gt;&lt;/b&gt;&lt;/li&gt;&lt;li style=&quot;font-size: 12px;&quot;&gt;&lt;b style=&quot;background-color: initial; font-size: 12px;&quot;&gt;&lt;font color=&quot;#ff66ff&quot; style=&quot;font-size: 12px;&quot;&gt;matches::range::any_element&lt;/font&gt;&lt;/b&gt;&lt;b style=&quot;font-size: 12px;&quot;&gt;&lt;font color=&quot;#0000cc&quot; style=&quot;font-size: 12px;&quot;&gt;(&lt;/font&gt;&lt;/b&gt;&amp;nbsp;&lt;i style=&quot;font-size: 12px;&quot;&gt;&lt;font color=&quot;#ff66ff&quot; style=&quot;font-size: 12px;&quot;&gt;matcher&amp;nbsp;&lt;/font&gt;&lt;/i&gt;&lt;b style=&quot;font-size: 12px;&quot;&gt;&lt;font color=&quot;#0000cc&quot; style=&quot;font-size: 12px;&quot;&gt;)&lt;/font&gt;&lt;/b&gt;&lt;/li&gt;&lt;/ul&gt;" style="text;html=1;align=left;verticalAlign=middle;whiteSpace=wrap;rounded=0;fontColor=#393C56;fontSize=12;" parent="xwFTqMN2i0QqSYNdKOKp-72" vertex="1">
          <mxGeometry x="215.68627450980392" y="9.99664670658683" width="284.3137254901961" height="66" as="geometry" />
        </mxCell>
        <mxCell id="xwFTqMN2i0QqSYNdKOKp-78" value="" style="group" parent="xwFTqMN2i0QqSYNdKOKp-79" vertex="1" connectable="0">
          <mxGeometry y="280.00335329341317" width="441.17647058823525" height="75.99664670658683" as="geometry" />
        </mxCell>
        <mxCell id="xwFTqMN2i0QqSYNdKOKp-74" value="&lt;div style=&quot;line-height: 14.4px;&quot;&gt;&lt;u&gt;String-Matchers:&lt;/u&gt;&lt;/div&gt;" style="text;html=1;align=left;verticalAlign=middle;resizable=0;points=[];autosize=1;strokeColor=none;fillColor=none;fontColor=#393C56;" parent="xwFTqMN2i0QqSYNdKOKp-78" vertex="1">
          <mxGeometry x="14.705882352941174" width="110" height="30" as="geometry" />
        </mxCell>
        <mxCell id="xwFTqMN2i0QqSYNdKOKp-75" value="&lt;ul style=&quot;text-wrap: nowrap; line-height: 14.4px; font-size: 12px;&quot;&gt;&lt;li style=&quot;font-size: 12px;&quot;&gt;&lt;b style=&quot;background-color: initial; font-size: 12px;&quot;&gt;&lt;font style=&quot;font-size: 12px;&quot; color=&quot;#ff66ff&quot;&gt;matches::str::eq&lt;/font&gt;&lt;/b&gt;&lt;b style=&quot;font-size: 12px;&quot;&gt;&lt;font style=&quot;font-size: 12px;&quot; color=&quot;#0000cc&quot;&gt;(&lt;/font&gt;&lt;/b&gt;&lt;b style=&quot;font-size: 12px;&quot;&gt;&lt;font style=&quot;font-size: 12px;&quot; color=&quot;#0000cc&quot;&gt;&lt;span style=&quot;color: rgb(57, 60, 86); font-weight: 400;&quot;&gt;&amp;nbsp;str&lt;/span&gt;&lt;i style=&quot;color: rgb(57, 60, 86); font-weight: 400;&quot;&gt;&amp;nbsp;&lt;/i&gt;)&lt;/font&gt;&lt;/b&gt;&lt;/li&gt;&lt;li&gt;&lt;b style=&quot;background-color: initial;&quot;&gt;&lt;font color=&quot;#ff66ff&quot;&gt;matches::str::contains&lt;/font&gt;&lt;/b&gt;&lt;b&gt;&lt;font color=&quot;#0000cc&quot;&gt;(&lt;/font&gt;&lt;/b&gt;&lt;b&gt;&lt;font color=&quot;#0000cc&quot;&gt;&lt;span style=&quot;color: rgb(57, 60, 86); font-weight: 400;&quot;&gt;&amp;nbsp;str&lt;/span&gt;&lt;i style=&quot;color: rgb(57, 60, 86); font-weight: 400;&quot;&gt;&amp;nbsp;&lt;/i&gt;)&lt;/font&gt;&lt;/b&gt;&lt;/li&gt;&lt;/ul&gt;" style="text;html=1;align=left;verticalAlign=middle;whiteSpace=wrap;rounded=0;fontColor=#393C56;fontSize=12;" parent="xwFTqMN2i0QqSYNdKOKp-78" vertex="1">
          <mxGeometry y="19.99664670658683" width="205.88235294117644" height="56" as="geometry" />
        </mxCell>
        <mxCell id="xwFTqMN2i0QqSYNdKOKp-77" value="&lt;ul style=&quot;text-wrap: nowrap; line-height: 14.4px; font-size: 12px;&quot;&gt;&lt;li style=&quot;font-size: 12px;&quot;&gt;&lt;b style=&quot;background-color: initial; font-size: 12px;&quot;&gt;&lt;font style=&quot;font-size: 12px;&quot; color=&quot;#ff66ff&quot;&gt;matches::str::starts_with&lt;/font&gt;&lt;/b&gt;&lt;b style=&quot;font-size: 12px;&quot;&gt;&lt;font style=&quot;font-size: 12px;&quot; color=&quot;#0000cc&quot;&gt;(&lt;/font&gt;&lt;/b&gt;&lt;b style=&quot;font-size: 12px;&quot;&gt;&lt;font style=&quot;font-size: 12px;&quot; color=&quot;#0000cc&quot;&gt;&lt;span style=&quot;color: rgb(57, 60, 86); font-weight: 400;&quot;&gt;&amp;nbsp;str&lt;/span&gt;&lt;i style=&quot;color: rgb(57, 60, 86); font-weight: 400;&quot;&gt;&amp;nbsp;&lt;/i&gt;)&lt;/font&gt;&lt;/b&gt;&lt;/li&gt;&lt;li&gt;&lt;b style=&quot;background-color: initial;&quot;&gt;&lt;font color=&quot;#ff66ff&quot;&gt;matches::str::&lt;/font&gt;&lt;/b&gt;&lt;b&gt;&lt;font color=&quot;#0000cc&quot;&gt;&lt;b style=&quot;color: rgb(57, 60, 86); background-color: initial;&quot;&gt;&lt;font color=&quot;#ff66ff&quot;&gt;ends_with&lt;/font&gt;&lt;/b&gt;(&lt;/font&gt;&lt;/b&gt;&lt;b&gt;&lt;font color=&quot;#0000cc&quot;&gt;&lt;span style=&quot;color: rgb(57, 60, 86); font-weight: 400;&quot;&gt;&amp;nbsp;str&lt;/span&gt;&lt;i style=&quot;color: rgb(57, 60, 86); font-weight: 400;&quot;&gt;&amp;nbsp;&lt;/i&gt;)&lt;/font&gt;&lt;/b&gt;&lt;/li&gt;&lt;/ul&gt;" style="text;html=1;align=left;verticalAlign=middle;whiteSpace=wrap;rounded=0;fontColor=#393C56;fontSize=12;" parent="xwFTqMN2i0QqSYNdKOKp-78" vertex="1">
          <mxGeometry x="215.6862745098039" y="19.99664670658683" width="225.49019607843132" height="56" as="geometry" />
        </mxCell>
        <mxCell id="xwFTqMN2i0QqSYNdKOKp-81" style="edgeStyle=orthogonalEdgeStyle;orthogonalLoop=1;jettySize=auto;html=1;strokeColor=#990099;fontColor=#393C56;fillColor=#F2CC8F;sketch=1;curveFitting=1;jiggle=2;exitX=0.969;exitY=0.946;exitDx=0;exitDy=0;exitPerimeter=0;" parent="1" source="xwFTqMN2i0QqSYNdKOKp-42" edge="1">
          <mxGeometry relative="1" as="geometry">
            <Array as="points">
              <mxPoint x="618" y="405" />
              <mxPoint x="620" y="405" />
              <mxPoint x="620" y="429" />
            </Array>
            <mxPoint x="600" y="429" as="targetPoint" />
          </mxGeometry>
        </mxCell>
        <mxCell id="xwFTqMN2i0QqSYNdKOKp-83" style="edgeStyle=orthogonalEdgeStyle;orthogonalLoop=1;jettySize=auto;html=1;entryX=0.146;entryY=0.008;entryDx=0;entryDy=0;entryPerimeter=0;strokeColor=#CC1366;fontColor=#393C56;fillColor=#F2CC8F;exitX=0.999;exitY=0.596;exitDx=0;exitDy=0;exitPerimeter=0;sketch=1;curveFitting=1;jiggle=2;" parent="1" source="xwFTqMN2i0QqSYNdKOKp-36" target="xwFTqMN2i0QqSYNdKOKp-34" edge="1">
          <mxGeometry relative="1" as="geometry">
            <Array as="points">
              <mxPoint x="278" y="388" />
              <mxPoint x="298" y="388" />
              <mxPoint x="298" y="387" />
              <mxPoint x="353" y="387" />
            </Array>
          </mxGeometry>
        </mxCell>
        <mxCell id="xwFTqMN2i0QqSYNdKOKp-84" style="edgeStyle=orthogonalEdgeStyle;orthogonalLoop=1;jettySize=auto;html=1;entryX=0.309;entryY=0.46;entryDx=0;entryDy=0;entryPerimeter=0;strokeColor=#66B2FF;fontColor=#393C56;fillColor=#F2CC8F;exitX=0.996;exitY=0.232;exitDx=0;exitDy=0;exitPerimeter=0;sketch=1;curveFitting=1;jiggle=2;" parent="1" source="xwFTqMN2i0QqSYNdKOKp-40" target="xwFTqMN2i0QqSYNdKOKp-35" edge="1">
          <mxGeometry relative="1" as="geometry">
            <Array as="points">
              <mxPoint x="390" y="623" />
              <mxPoint x="390" y="473" />
            </Array>
          </mxGeometry>
        </mxCell>
        <mxCell id="xwFTqMN2i0QqSYNdKOKp-85" style="edgeStyle=orthogonalEdgeStyle;orthogonalLoop=1;jettySize=auto;html=1;entryX=0.123;entryY=0.42;entryDx=0;entryDy=0;entryPerimeter=0;strokeColor=#009999;fontColor=#393C56;fillColor=#F2CC8F;sketch=1;curveFitting=1;jiggle=2;exitX=0.367;exitY=-0.007;exitDx=0;exitDy=0;exitPerimeter=0;" parent="1" source="xwFTqMN2i0QqSYNdKOKp-38" target="xwFTqMN2i0QqSYNdKOKp-35" edge="1">
          <mxGeometry relative="1" as="geometry">
            <Array as="points">
              <mxPoint x="417" y="578" />
              <mxPoint x="417" y="578" />
              <mxPoint x="417" y="487" />
            </Array>
          </mxGeometry>
        </mxCell>
        <mxCell id="xwFTqMN2i0QqSYNdKOKp-86" style="edgeStyle=orthogonalEdgeStyle;orthogonalLoop=1;jettySize=auto;html=1;entryX=0.942;entryY=0.6;entryDx=0;entryDy=0;entryPerimeter=0;strokeColor=#00CC00;fontColor=#393C56;fillColor=#F2CC8F;sketch=1;curveFitting=1;jiggle=2;exitX=0.842;exitY=0.007;exitDx=0;exitDy=0;exitPerimeter=0;curved=1;" parent="1" source="xwFTqMN2i0QqSYNdKOKp-39" target="xwFTqMN2i0QqSYNdKOKp-34" edge="1">
          <mxGeometry relative="1" as="geometry">
            <Array as="points">
              <mxPoint x="616" y="490" />
              <mxPoint x="620" y="490" />
              <mxPoint x="620" y="460" />
            </Array>
          </mxGeometry>
        </mxCell>
        <mxCell id="xwFTqMN2i0QqSYNdKOKp-87" style="edgeStyle=orthogonalEdgeStyle;orthogonalLoop=1;jettySize=auto;html=1;exitX=0.997;exitY=0.147;exitDx=0;exitDy=0;entryX=0.693;entryY=0.433;entryDx=0;entryDy=0;entryPerimeter=0;strokeColor=#006600;fontColor=#393C56;fillColor=#F2CC8F;sketch=1;curveFitting=1;jiggle=2;exitPerimeter=0;" parent="1" source="xwFTqMN2i0QqSYNdKOKp-44" target="xwFTqMN2i0QqSYNdKOKp-35" edge="1">
          <mxGeometry relative="1" as="geometry">
            <Array as="points">
              <mxPoint x="357" y="460" />
              <mxPoint x="380" y="460" />
              <mxPoint x="380" y="444" />
            </Array>
          </mxGeometry>
        </mxCell>
        <mxCell id="xwFTqMN2i0QqSYNdKOKp-88" value="&lt;u&gt;Expectation Setup&lt;/u&gt;" style="shape=document;boundedLbl=1;strokeColor=#56517e;fillColor=#d0cee2;size=0.3333333333333333;fontStyle=1;fontSize=14;gradientColor=none;fillStyle=auto;labelBackgroundColor=none;labelBorderColor=none;textShadow=0;whiteSpace=wrap;html=1;horizontal=1;verticalAlign=middle;fontColor=#393C56;" parent="1" vertex="1">
          <mxGeometry x="818" y="280" width="340" height="30" as="geometry" />
        </mxCell>
        <mxCell id="xwFTqMN2i0QqSYNdKOKp-90" value="" style="group" parent="1" vertex="1" connectable="0">
          <mxGeometry x="8" y="140" width="1150" height="140" as="geometry" />
        </mxCell>
        <mxCell id="xwFTqMN2i0QqSYNdKOKp-20" value="" style="rounded=1;whiteSpace=wrap;html=1;strokeColor=#E07A5F;fontColor=#393C56;fillColor=#F2CC8F;arcSize=10;" parent="xwFTqMN2i0QqSYNdKOKp-90" vertex="1">
          <mxGeometry y="10" width="1150" height="120" as="geometry" />
        </mxCell>
        <mxCell id="xwFTqMN2i0QqSYNdKOKp-14" value="[&lt;b&gt;&lt;font color=&quot;#0000cc&quot;&gt;MIMICPP_&lt;/font&gt;&lt;/b&gt;]&lt;b&gt;&lt;font color=&quot;#0000cc&quot;&gt;MOCK_METHOD(&lt;/font&gt;&lt;/b&gt; &lt;i&gt;function_name&lt;/i&gt;&lt;b&gt;&lt;font color=&quot;#0000cc&quot;&gt;,&lt;/font&gt;&lt;/b&gt;&amp;nbsp;&lt;i&gt;return-type&lt;/i&gt;&lt;b&gt;&lt;font color=&quot;#0000cc&quot;&gt;,&lt;/font&gt;&lt;/b&gt;&amp;nbsp;&lt;b&gt;&lt;font color=&quot;#0000cc&quot;&gt;(&lt;/font&gt;&lt;/b&gt;&amp;nbsp;[&lt;i&gt;param-types&lt;/i&gt;&lt;i&gt;...&lt;/i&gt;]&amp;nbsp;&lt;font color=&quot;#0000cc&quot;&gt;&lt;b&gt;),&lt;/b&gt;&lt;/font&gt; [&lt;b style=&quot;color: rgb(0, 0, 204);&quot;&gt;const&lt;/b&gt;]&amp;nbsp;[&lt;b&gt;&lt;font color=&quot;#0000cc&quot;&gt;&amp;amp;&lt;/font&gt;&lt;/b&gt;|&lt;b style=&quot;color: rgb(0, 0, 204);&quot;&gt;&amp;amp;&amp;amp;&lt;/b&gt;] [&lt;b style=&quot;color: rgb(0, 0, 204);&quot;&gt;noexcept&lt;/b&gt;] &lt;b&gt;&lt;font color=&quot;#0000cc&quot;&gt;);&lt;/font&gt;&lt;/b&gt;" style="text;html=1;align=left;verticalAlign=middle;resizable=0;points=[];autosize=1;strokeColor=none;fillColor=none;fontColor=#393C56;" parent="xwFTqMN2i0QqSYNdKOKp-90" vertex="1">
          <mxGeometry x="29.870129870129865" y="30" width="600" height="30" as="geometry" />
        </mxCell>
        <mxCell id="xwFTqMN2i0QqSYNdKOKp-17" value="[&lt;b&gt;&lt;font color=&quot;#0000cc&quot;&gt;MIMICPP_&lt;/font&gt;&lt;/b&gt;]&lt;b&gt;&lt;font color=&quot;#0000cc&quot;&gt;MOCK_OVERLOADED_METHOD(&lt;/font&gt;&lt;/b&gt; function_name&lt;b style=&quot;color: rgb(0, 0, 204);&quot;&gt;,&lt;/b&gt;&lt;span style=&quot;color: rgb(0, 0, 204); font-weight: bold; white-space: pre;&quot;&gt;&#x9;&lt;/span&gt;&lt;i style=&quot;&quot;&gt;&lt;font color=&quot;#5d8049&quot;&gt;// overrides the overloaded interface-function&lt;/font&gt;&lt;/i&gt;&lt;div&gt;&lt;span style=&quot;white-space: pre;&quot;&gt;&#x9;&lt;/span&gt;&lt;span style=&quot;white-space: pre;&quot;&gt;&#x9;&lt;/span&gt;&lt;span style=&quot;white-space: pre;&quot;&gt;&#x9;&lt;/span&gt;&lt;span style=&quot;white-space: pre;&quot;&gt;&#x9;&lt;/span&gt;&lt;span style=&quot;white-space: pre;&quot;&gt;&#x9;&lt;/span&gt;&lt;span style=&quot;white-space: pre;&quot;&gt;&#x9;&lt;/span&gt;&lt;span style=&quot;white-space: pre;&quot;&gt;&#x9;&lt;span style=&quot;white-space: pre;&quot;&gt;&#x9;&lt;span style=&quot;white-space: pre;&quot;&gt;&#x9;&lt;/span&gt;&lt;span style=&quot;white-space: pre;&quot;&gt;&#x9;&lt;/span&gt;&lt;/span&gt;&lt;/span&gt;[&lt;b&gt;&lt;font color=&quot;#0000cc&quot;&gt;MIMICPP_&lt;/font&gt;&lt;/b&gt;]&lt;b&gt;&lt;font color=&quot;#0000cc&quot;&gt;ADD_OVERLOAD&lt;/font&gt;&lt;/b&gt;&lt;span style=&quot;background-color: initial;&quot;&gt;&lt;b&gt;&lt;font color=&quot;#0000cc&quot;&gt;(&lt;/font&gt;&lt;/b&gt;&amp;nbsp;&lt;/span&gt;&lt;i style=&quot;background-color: initial;&quot;&gt;return-type&lt;/i&gt;&lt;b style=&quot;background-color: initial;&quot;&gt;&lt;font color=&quot;#0000cc&quot;&gt;,&lt;/font&gt;&lt;/b&gt;&lt;span style=&quot;background-color: initial;&quot;&gt;&amp;nbsp;&lt;/span&gt;&lt;b style=&quot;background-color: initial;&quot;&gt;&lt;font color=&quot;#0000cc&quot;&gt;(&lt;/font&gt;&lt;/b&gt;&lt;span style=&quot;background-color: initial;&quot;&gt;&amp;nbsp;[&lt;/span&gt;&lt;i style=&quot;background-color: initial;&quot;&gt;param-types&lt;/i&gt;&lt;i style=&quot;background-color: initial;&quot;&gt;...&lt;/i&gt;&lt;span style=&quot;background-color: initial;&quot;&gt;]&amp;nbsp;&lt;/span&gt;&lt;font style=&quot;background-color: initial;&quot; color=&quot;#0000cc&quot;&gt;&lt;b&gt;),&lt;/b&gt;&lt;/font&gt;&lt;span style=&quot;background-color: initial;&quot;&gt;&amp;nbsp;&lt;/span&gt;&lt;span style=&quot;background-color: initial;&quot;&gt;[&lt;/span&gt;&lt;b style=&quot;background-color: initial; color: rgb(0, 0, 204);&quot;&gt;const&lt;/b&gt;&lt;span style=&quot;background-color: initial;&quot;&gt;]&amp;nbsp;[&lt;/span&gt;&lt;b style=&quot;background-color: initial;&quot;&gt;&lt;font color=&quot;#0000cc&quot;&gt;&amp;amp;&lt;/font&gt;&lt;/b&gt;&lt;span style=&quot;background-color: initial;&quot;&gt;|&lt;/span&gt;&lt;b style=&quot;background-color: initial; color: rgb(0, 0, 204);&quot;&gt;&amp;amp;&amp;amp;&lt;/b&gt;&lt;span style=&quot;background-color: initial;&quot;&gt;] [&lt;/span&gt;&lt;b style=&quot;background-color: initial; color: rgb(0, 0, 204);&quot;&gt;noexcept&lt;/b&gt;&lt;span style=&quot;background-color: initial;&quot;&gt;]&lt;/span&gt;&lt;span style=&quot;background-color: initial;&quot;&gt;&amp;nbsp;&lt;/span&gt;&lt;b style=&quot;background-color: initial;&quot;&gt;&lt;font color=&quot;#0000cc&quot;&gt;),&lt;/font&gt;&lt;/b&gt;&lt;br&gt;&lt;/div&gt;&lt;div&gt;&lt;span style=&quot;background-color: initial;&quot;&gt;&lt;span style=&quot;white-space: pre;&quot;&gt;&#x9;&lt;/span&gt;&lt;span style=&quot;white-space: pre;&quot;&gt;&#x9;&lt;/span&gt;&lt;span style=&quot;white-space: pre;&quot;&gt;&#x9;&lt;/span&gt;&lt;span style=&quot;white-space: pre;&quot;&gt;&#x9;&lt;/span&gt;&lt;span style=&quot;white-space: pre;&quot;&gt;&#x9;&lt;/span&gt;&lt;span style=&quot;white-space: pre;&quot;&gt;&#x9;&lt;/span&gt;&lt;span style=&quot;white-space: pre;&quot;&gt;&#x9;&lt;span style=&quot;white-space: pre;&quot;&gt;&#x9;&lt;span style=&quot;white-space: pre;&quot;&gt;&#x9;&lt;/span&gt;&lt;span style=&quot;white-space: pre;&quot;&gt;&#x9;&lt;/span&gt;&lt;/span&gt;&lt;/span&gt;[&amp;nbsp;&lt;/span&gt;&lt;span style=&quot;background-color: initial;&quot;&gt;[&lt;/span&gt;&lt;b&gt;&lt;font color=&quot;#0000cc&quot;&gt;MIMICPP_&lt;/font&gt;&lt;/b&gt;]&lt;b&gt;&lt;font color=&quot;#0000cc&quot;&gt;ADD_OVERLOAD&lt;/font&gt;&lt;/b&gt;&lt;span style=&quot;background-color: initial;&quot;&gt;&lt;b&gt;&lt;font color=&quot;#0000cc&quot;&gt;(&lt;/font&gt;&lt;/b&gt;&amp;nbsp;&lt;/span&gt;&lt;i&gt;return-type&lt;/i&gt;&lt;b&gt;&lt;font color=&quot;#0000cc&quot;&gt;,&lt;/font&gt;&lt;/b&gt;&amp;nbsp;&lt;b&gt;&lt;font color=&quot;#0000cc&quot;&gt;(&lt;/font&gt;&lt;/b&gt;&amp;nbsp;[&lt;i&gt;param-types&lt;/i&gt;&lt;i&gt;...&lt;/i&gt;]&amp;nbsp;&lt;font color=&quot;#0000cc&quot;&gt;&lt;b&gt;),&lt;/b&gt;&lt;/font&gt;&amp;nbsp;[&lt;b style=&quot;color: rgb(0, 0, 204);&quot;&gt;const&lt;/b&gt;]&amp;nbsp;[&lt;b&gt;&lt;font color=&quot;#0000cc&quot;&gt;&amp;amp;&lt;/font&gt;&lt;/b&gt;|&lt;b style=&quot;color: rgb(0, 0, 204);&quot;&gt;&amp;amp;&amp;amp;&lt;/b&gt;] [&lt;b style=&quot;color: rgb(0, 0, 204);&quot;&gt;noexcept&lt;/b&gt;]&amp;nbsp;&lt;b&gt;&lt;font color=&quot;#0000cc&quot;&gt;)&lt;/font&gt;&lt;/b&gt;&lt;span style=&quot;background-color: initial;&quot;&gt;&amp;nbsp;... ] &lt;b&gt;&lt;font color=&quot;#0000cc&quot;&gt;);&lt;/font&gt;&lt;/b&gt;&lt;/span&gt;&lt;span style=&quot;background-color: initial;&quot;&gt;&lt;br&gt;&lt;/span&gt;&lt;/div&gt;&lt;div&gt;&amp;nbsp;;&lt;/div&gt;" style="text;html=1;align=left;verticalAlign=middle;resizable=0;points=[];autosize=1;strokeColor=none;fillColor=none;fontColor=#393C56;" parent="xwFTqMN2i0QqSYNdKOKp-90" vertex="1">
          <mxGeometry x="29.870129870129865" y="70" width="820" height="70" as="geometry" />
        </mxCell>
        <mxCell id="xwFTqMN2i0QqSYNdKOKp-31" value="&lt;u&gt;Interface Mocking&lt;/u&gt;" style="shape=document;boundedLbl=1;strokeColor=#56517e;fillColor=#d0cee2;size=0.3333333333333333;fontStyle=1;fontSize=14;gradientColor=none;fillStyle=auto;labelBackgroundColor=none;labelBorderColor=none;textShadow=0;whiteSpace=wrap;html=1;horizontal=1;verticalAlign=middle;fontColor=#393C56;" parent="xwFTqMN2i0QqSYNdKOKp-90" vertex="1">
          <mxGeometry x="806.4935064935064" width="343.5064935064935" height="30" as="geometry" />
        </mxCell>
        <mxCell id="xwFTqMN2i0QqSYNdKOKp-93" value="" style="group" parent="1" vertex="1" connectable="0">
          <mxGeometry x="8" y="40" width="1150" height="90" as="geometry" />
        </mxCell>
        <mxCell id="xwFTqMN2i0QqSYNdKOKp-10" value="" style="rounded=1;whiteSpace=wrap;html=1;strokeColor=#E07A5F;fontColor=#393C56;fillColor=#F2CC8F;arcSize=14;" parent="xwFTqMN2i0QqSYNdKOKp-93" vertex="1">
          <mxGeometry y="10" width="1150" height="80" as="geometry" />
        </mxCell>
        <mxCell id="xwFTqMN2i0QqSYNdKOKp-15" value="&lt;b style=&quot;color: rgb(0, 0, 204);&quot;&gt;Mock&amp;lt; &lt;/b&gt;&lt;i&gt;signature&lt;/i&gt;&lt;b style=&quot;color: rgb(0, 0, 204);&quot;&gt;&amp;nbsp;&lt;/b&gt;[&lt;b&gt;&lt;font color=&quot;#0000cc&quot;&gt;,&lt;/font&gt;&lt;/b&gt; other-&lt;i&gt;signatures&lt;/i&gt;...]&amp;nbsp;&lt;b&gt;&lt;font color=&quot;#0000cc&quot;&gt;&amp;gt;&lt;/font&gt;&lt;/b&gt; &lt;i&gt;name&lt;font color=&quot;#0000cc&quot;&gt;&lt;b&gt;;&lt;/b&gt;&lt;/font&gt;&lt;/i&gt;" style="text;html=1;align=left;verticalAlign=middle;resizable=0;points=[];autosize=1;strokeColor=none;fillColor=none;fontColor=#393C56;" parent="xwFTqMN2i0QqSYNdKOKp-93" vertex="1">
          <mxGeometry x="34.84848484848485" y="20" width="280" height="30" as="geometry" />
        </mxCell>
        <mxCell id="xwFTqMN2i0QqSYNdKOKp-27" value="&lt;u&gt;Free standing Mock-Object&lt;/u&gt;" style="shape=document;boundedLbl=1;strokeColor=#56517e;fillColor=#d0cee2;size=0.3333333333333333;fontStyle=1;fontSize=14;gradientColor=none;fillStyle=auto;labelBackgroundColor=none;labelBorderColor=none;textShadow=0;whiteSpace=wrap;html=1;horizontal=1;verticalAlign=middle;fontColor=#393C56;" parent="xwFTqMN2i0QqSYNdKOKp-93" vertex="1">
          <mxGeometry x="800" width="350" height="30" as="geometry" />
        </mxCell>
        <mxCell id="xwFTqMN2i0QqSYNdKOKp-91" style="edgeStyle=orthogonalEdgeStyle;orthogonalLoop=1;jettySize=auto;html=1;strokeColor=#AE4132;fontColor=#393C56;fillColor=#F2CC8F;entryX=0.247;entryY=1.022;entryDx=0;entryDy=0;entryPerimeter=0;exitX=-0.002;exitY=0.667;exitDx=0;exitDy=0;exitPerimeter=0;sketch=1;curveFitting=1;jiggle=2;" parent="xwFTqMN2i0QqSYNdKOKp-93" source="xwFTqMN2i0QqSYNdKOKp-16" target="xwFTqMN2i0QqSYNdKOKp-15" edge="1">
          <mxGeometry relative="1" as="geometry">
            <mxPoint x="150" y="-10" as="targetPoint" />
          </mxGeometry>
        </mxCell>
        <mxCell id="xwFTqMN2i0QqSYNdKOKp-16" value="signature := &lt;i&gt;return-type&amp;nbsp;&lt;/i&gt;&lt;b style=&quot;text-align: left;&quot;&gt;&lt;font color=&quot;#0000cc&quot;&gt;(&lt;/font&gt;&lt;/b&gt;&lt;span style=&quot;text-align: left;&quot;&gt;&amp;nbsp;[&lt;/span&gt;&lt;i style=&quot;text-align: left;&quot;&gt;param-types&lt;/i&gt;&lt;i style=&quot;text-align: left;&quot;&gt;...&lt;/i&gt;&lt;span style=&quot;text-align: left;&quot;&gt;]&amp;nbsp;&lt;/span&gt;&lt;font style=&quot;text-align: left;&quot; color=&quot;#0000cc&quot;&gt;&lt;b&gt;)&lt;/b&gt;&lt;/font&gt;&amp;nbsp;&lt;span style=&quot;text-align: left;&quot;&gt;[&lt;/span&gt;&lt;b style=&quot;text-align: left; color: rgb(0, 0, 204);&quot;&gt;const&lt;/b&gt;&lt;span style=&quot;text-align: left;&quot;&gt;]&amp;nbsp;[&lt;/span&gt;&lt;b style=&quot;text-align: left;&quot;&gt;&lt;font color=&quot;#0000cc&quot;&gt;&amp;amp;&lt;/font&gt;&lt;/b&gt;&lt;span style=&quot;text-align: left;&quot;&gt;|&lt;/span&gt;&lt;b style=&quot;text-align: left; color: rgb(0, 0, 204);&quot;&gt;&amp;amp;&amp;amp;&lt;/b&gt;&lt;span style=&quot;text-align: left;&quot;&gt;] [&lt;/span&gt;&lt;b style=&quot;text-align: left; color: rgb(0, 0, 204);&quot;&gt;noexcept&lt;/b&gt;&lt;span style=&quot;text-align: left;&quot;&gt;]&lt;/span&gt;" style="text;html=1;align=center;verticalAlign=middle;resizable=0;points=[];autosize=1;strokeColor=#ae4132;fillColor=#fad9d5;shadow=1;glass=0;rounded=1;sketch=1;curveFitting=1;jiggle=2;fontColor=#393C56;arcSize=37;" parent="xwFTqMN2i0QqSYNdKOKp-93" vertex="1">
          <mxGeometry x="300.00030303030303" y="50" width="390" height="30" as="geometry" />
        </mxCell>
        <mxCell id="xwFTqMN2i0QqSYNdKOKp-92" style="edgeStyle=orthogonalEdgeStyle;orthogonalLoop=1;jettySize=auto;html=1;strokeColor=#AE4132;fontColor=#393C56;fillColor=#F2CC8F;entryX=0.512;entryY=1.044;entryDx=0;entryDy=0;entryPerimeter=0;exitX=0.001;exitY=0.678;exitDx=0;exitDy=0;exitPerimeter=0;sketch=1;curveFitting=1;jiggle=2;" parent="xwFTqMN2i0QqSYNdKOKp-93" source="xwFTqMN2i0QqSYNdKOKp-16" target="xwFTqMN2i0QqSYNdKOKp-15" edge="1">
          <mxGeometry relative="1" as="geometry">
            <mxPoint x="114" y="61" as="targetPoint" />
            <mxPoint x="309" y="80" as="sourcePoint" />
          </mxGeometry>
        </mxCell>
        <mxCell id="xwFTqMN2i0QqSYNdKOKp-98" value="&lt;b style=&quot;font-size: 18px;&quot;&gt;&lt;u style=&quot;font-size: 18px;&quot;&gt;&lt;span style=&quot;white-space: pre;&quot;&gt;&#x9;&lt;/span&gt;mimic++ cheat-sheet&lt;/u&gt;&lt;/b&gt;" style="shape=step;perimeter=stepPerimeter;whiteSpace=wrap;html=1;fixedSize=1;strokeColor=#56517e;fillColor=#d0cee2;align=left;fontColor=#393C56;fontSize=18;" parent="1" vertex="1">
          <mxGeometry x="9" y="10" width="590" height="30" as="geometry" />
        </mxCell>
      </root>
    </mxGraphModel>
  </diagram>
</mxfile>
